<svg width="24" height="24" viewBox="0 0 24 24" fill="none" xmlns="http://www.w3.org/2000/svg">
<path d="M19.972 8.75H17.032C15.762 8.75 15.002 7.99 15.002 6.72V3.78C15.002 2.51 15.762 1.75 17.032 1.75H19.972C21.242 1.75 22.002 2.51 22.002 3.78V6.72C22.002 7.99 21.242 8.75 19.972 8.75ZM20.192 5.44C20.072 5.32 19.912 5.26 19.752 5.26C19.592 5.26 19.432 5.32 19.312 5.44L19.132 5.62V3.38C19.132 3.03 18.852 2.75 18.502 2.75C18.152 2.75 17.872 3.03 17.872 3.38V5.62L17.692 5.44C17.452 5.2 17.052 5.2 16.812 5.44C16.572 5.68 16.572 6.08 16.812 6.32L18.062 7.57C18.112 7.62 18.182 7.66 18.252 7.69C18.272 7.7 18.292 7.7 18.312 7.71C18.362 7.73 18.412 7.74 18.472 7.74C18.492 7.74 18.512 7.74 18.532 7.74C18.602 7.74 18.662 7.73 18.732 7.7C18.742 7.7 18.742 7.7 18.752 7.7C18.822 7.67 18.882 7.63 18.932 7.58C18.942 7.57 18.942 7.57 18.952 7.57L20.202 6.32C20.442 6.08 20.442 5.68 20.192 5.44Z" fill="#292D32"/>
<path d="M2.00195 11.46V16.46C2.00195 18.75 3.85195 20.6 6.14195 20.6H17.852C20.142 20.6 22.002 18.74 22.002 16.45V11.46C22.002 10.79 21.462 10.25 20.792 10.25H3.21195C2.54195 10.25 2.00195 10.79 2.00195 11.46ZM8.00195 17.25H6.00195C5.59195 17.25 5.25195 16.91 5.25195 16.5C5.25195 16.09 5.59195 15.75 6.00195 15.75H8.00195C8.41195 15.75 8.75195 16.09 8.75195 16.5C8.75195 16.91 8.41195 17.25 8.00195 17.25ZM14.502 17.25H10.502C10.092 17.25 9.75195 16.91 9.75195 16.5C9.75195 16.09 10.092 15.75 10.502 15.75H14.502C14.912 15.75 15.252 16.09 15.252 16.5C15.252 16.91 14.912 17.25 14.502 17.25Z" fill="#292D32"/>
<path d="M13.502 4.61002V7.54002C13.502 8.21002 12.962 8.75002 12.292 8.75002H3.21195C2.53195 8.75002 2.00195 8.19002 2.00195 7.52002C2.01195 6.39002 2.46195 5.36002 3.21195 4.61002C3.96195 3.86002 5.00195 3.40002 6.14195 3.40002H12.292C12.962 3.40002 13.502 3.94002 13.502 4.61002Z" fill="#292D32"/>
</svg>
