<svg width="24" height="24" viewBox="0 0 24 24" fill="none" xmlns="http://www.w3.org/2000/svg">
<path d="M15.0009 22.75C14.7309 22.75 14.4809 22.6 14.3509 22.37C14.2209 22.14 14.2209 21.85 14.3609 21.62L15.4109 19.87C15.6209 19.51 16.0809 19.4 16.4409 19.61C16.8009 19.82 16.9109 20.28 16.7009 20.64L16.4309 21.09C19.1909 20.44 21.2609 17.96 21.2609 15C21.2609 14.59 21.6009 14.25 22.0109 14.25C22.4209 14.25 22.7609 14.59 22.7609 15C22.7509 19.27 19.2709 22.75 15.0009 22.75Z" fill="#292D32"/>
<path d="M2.00098 9.75C1.59098 9.75 1.25098 9.41 1.25098 9C1.25098 4.73 4.73098 1.25 9.00098 1.25C9.27098 1.25 9.52098 1.4 9.65098 1.63C9.78098 1.86 9.78098 2.15 9.64098 2.38L8.59098 4.14C8.38098 4.49 7.92098 4.61 7.56098 4.39C7.21098 4.18 7.09098 3.72 7.31098 3.36L7.58098 2.91C4.81098 3.56 2.75098 6.04 2.75098 9C2.75098 9.41 2.41098 9.75 2.00098 9.75Z" fill="#292D32"/>
<path d="M10.6709 13.85L7.53094 12.16C7.20094 11.98 6.80094 11.98 6.47094 12.16L3.33094 13.85C3.10094 13.97 2.96094 14.22 2.96094 14.49C2.96094 14.76 3.10094 15.01 3.33094 15.13L6.47094 16.82C6.64094 16.91 6.82094 16.95 7.00094 16.95C7.18094 16.95 7.36094 16.91 7.53094 16.82L10.6709 15.13C10.9009 15.01 11.0409 14.76 11.0409 14.49C11.0409 14.22 10.8909 13.98 10.6709 13.85Z" fill="#292D32"/>
<path d="M5.95098 17.41L3.03098 15.95C2.81098 15.84 2.55098 15.85 2.33098 15.98C2.13098 16.11 2.00098 16.34 2.00098 16.59V19.35C2.00098 19.83 2.26098 20.26 2.69098 20.47L5.61098 21.93C5.71098 21.97 5.82098 22 5.93098 22C6.06098 22 6.19098 21.96 6.31098 21.89C6.52098 21.76 6.65098 21.53 6.65098 21.28V18.52C6.65098 18.05 6.38098 17.62 5.95098 17.41Z" fill="#292D32"/>
<path d="M11.661 15.98C11.451 15.85 11.191 15.84 10.961 15.95L8.04095 17.41C7.61095 17.62 7.35095 18.05 7.35095 18.53V21.29C7.35095 21.54 7.48095 21.77 7.69095 21.9C7.81095 21.96 7.94095 22 8.07095 22C8.18095 22 8.29095 21.97 8.39095 21.92L11.311 20.46C11.741 20.25 12.001 19.82 12.001 19.34V16.58C12.001 16.34 11.871 16.11 11.661 15.98Z" fill="#292D32"/>
<path d="M20.6709 3.83L17.5309 2.14C17.2009 1.96 16.8009 1.96 16.4709 2.14L13.3309 3.83C13.1009 3.95 12.9609 4.2 12.9609 4.47C12.9609 4.74 13.1009 4.99001 13.3309 5.11L16.4709 6.8C16.6409 6.89001 16.8209 6.93 17.0009 6.93C17.1809 6.93 17.3609 6.89001 17.5309 6.8L20.6709 5.11C20.9009 4.99001 21.0409 4.74 21.0409 4.47C21.0409 4.19 20.8909 3.95 20.6709 3.83Z" fill="#292D32"/>
<path d="M15.951 7.37999L13.031 5.91999C12.811 5.80999 12.551 5.81999 12.331 5.94999C12.131 6.07999 12.001 6.30999 12.001 6.55999V9.31999C12.001 9.79999 12.261 10.23 12.691 10.44L15.611 11.9C15.711 11.95 15.821 11.98 15.931 11.98C16.061 11.98 16.191 11.94 16.311 11.87C16.521 11.74 16.651 11.51 16.651 11.26V8.49999C16.651 8.01999 16.381 7.58999 15.951 7.37999Z" fill="#292D32"/>
<path d="M21.661 5.94999C21.451 5.81999 21.191 5.80999 20.961 5.91999L18.041 7.37999C17.611 7.58999 17.351 8.01999 17.351 8.49999V11.26C17.351 11.51 17.481 11.74 17.691 11.87C17.811 11.94 17.941 11.98 18.071 11.98C18.181 11.98 18.291 11.95 18.391 11.9L21.311 10.44C21.741 10.22 22.001 9.78999 22.001 9.31999V6.55999C22.001 6.30999 21.871 6.07999 21.661 5.94999Z" fill="#292D32"/>
</svg>
